<?xml version="1.0" standalone="no"?>
<!DOCTYPE svg PUBLIC "-//W3C//DTD SVG 20010904//EN"
 "http://www.w3.org/TR/2001/REC-SVG-20010904/DTD/svg10.dtd">
<svg version="1.0" xmlns="http://www.w3.org/2000/svg"
 width="512.000000pt" height="512.000000pt" viewBox="0 0 512.000000 512.000000"
 preserveAspectRatio="xMidYMid meet">
<metadata>
Created by potrace 1.11, written by Peter Selinger 2001-2013
</metadata>
<g transform="translate(0.000000,512.000000) scale(0.100000,-0.100000)"
fill="#000000" stroke="none">
<path d="M2434 4938 c-170 -56 -276 -212 -270 -395 2 -71 7 -91 39 -156 21
-43 54 -90 77 -111 l40 -36 0 -177 c0 -97 -3 -174 -6 -171 -8 9 -166 -35 -255
-70 -88 -35 -145 -64 -216 -109 -29 -18 -55 -33 -58 -33 -3 0 -59 54 -125 120
-106 106 -119 123 -116 149 11 93 -37 220 -110 297 -126 131 -296 164 -459 89
-245 -113 -305 -443 -116 -635 82 -83 168 -121 277 -124 l71 -2 116 -117 c64
-65 117 -119 117 -121 0 -2 -19 -35 -42 -72 -23 -38 -56 -102 -74 -141 -34
-73 -90 -247 -96 -293 l-3 -25 -170 -3 -170 -2 -57 52 c-134 124 -329 142
-482 44 -67 -43 -112 -96 -150 -176 -25 -55 -31 -78 -32 -149 -2 -96 13 -151
61 -226 46 -71 90 -109 168 -146 94 -43 195 -50 286 -19 72 24 136 64 174 110
l26 30 172 -2 171 -3 23 -90 c38 -149 107 -308 176 -407 11 -14 19 -29 19 -32
0 -3 -53 -59 -118 -124 l-118 -118 -64 -1 c-184 -2 -361 -149 -385 -318 -4
-28 -9 -57 -10 -65 -6 -36 15 -131 41 -185 94 -200 329 -285 527 -191 139 66
225 197 231 351 l3 73 117 116 c64 64 119 116 122 116 4 0 26 -13 50 -30 96
-65 330 -160 438 -178 l41 -8 3 -170 2 -170 -46 -48 c-25 -27 -60 -79 -78
-115 -27 -59 -31 -76 -31 -156 0 -128 28 -198 115 -285 81 -81 156 -113 267
-117 168 -5 303 80 377 237 27 57 31 75 31 155 0 119 -29 195 -103 274 l-52
56 2 169 3 168 90 23 c121 31 252 85 354 145 46 28 86 50 87 50 2 0 57 -53
123 -119 118 -118 119 -119 117 -162 -10 -213 158 -395 378 -412 187 -15 379
137 415 327 44 238 -143 462 -393 470 l-63 2 -118 119 -118 118 17 26 c84 132
143 268 181 416 l23 90 170 3 170 2 44 -44 c130 -135 363 -151 514 -37 301
227 156 702 -218 717 -122 5 -236 -41 -311 -126 l-28 -30 -170 2 -171 3 -23
91 c-29 114 -91 263 -150 361 -25 42 -45 77 -45 80 0 2 53 56 118 121 l117
118 65 1 c184 3 349 136 384 311 50 240 -111 459 -355 486 -62 6 -170 -17
-228 -50 -56 -33 -134 -111 -160 -162 -28 -55 -48 -140 -45 -195 l2 -49 -119
-119 c-65 -65 -121 -119 -123 -119 -2 0 -34 18 -70 40 -127 77 -306 149 -414
166 -20 3 -40 8 -44 11 -5 2 -8 81 -8 174 l0 170 30 26 c83 70 130 185 126
310 -2 71 -7 91 -40 157 -44 90 -113 156 -202 194 -81 34 -195 39 -280 10z
m231 -161 c38 -20 92 -73 111 -108 22 -43 28 -124 13 -177 -10 -36 -28 -62
-81 -114 l-68 -68 0 -255 0 -256 25 -23 c15 -14 45 -27 73 -31 107 -16 242
-59 350 -111 62 -31 116 -62 119 -70 3 -8 -17 -36 -50 -68 l-55 -53 57 -57 57
-56 259 259 c143 143 263 270 267 282 5 12 4 36 0 53 -38 139 82 286 233 286
204 0 313 -242 177 -392 -61 -68 -137 -91 -248 -74 -17 2 -37 0 -45 -4 -8 -5
-130 -125 -272 -266 l-258 -258 53 -53 c29 -29 56 -53 61 -53 5 0 33 25 63 55
l54 55 23 -37 c58 -92 118 -237 141 -344 21 -95 24 -110 25 -132 1 -10 12 -29
26 -42 l24 -25 257 0 257 0 56 59 c68 72 108 93 182 97 131 7 249 -107 249
-240 0 -53 -29 -121 -67 -159 -66 -67 -143 -89 -235 -67 -45 11 -63 23 -120
82 l-68 68 -254 0 c-307 0 -289 8 -317 -130 -25 -121 -24 -117 -43 -170 -9
-25 -18 -49 -19 -55 -6 -28 -103 -208 -114 -212 -7 -3 -37 20 -67 50 l-53 55
-57 -57 -56 -57 259 -259 c142 -142 267 -262 277 -266 11 -3 30 -4 44 -1 149
31 299 -74 302 -211 1 -57 -12 -127 -23 -127 -5 0 -9 -6 -9 -14 0 -22 -85 -91
-128 -104 -122 -37 -245 16 -294 126 -19 42 -26 115 -16 162 3 14 2 33 -1 43
-4 10 -123 135 -266 278 l-260 259 -52 -52 c-29 -29 -53 -56 -53 -61 0 -4 25
-33 55 -62 l55 -55 -38 -23 c-69 -45 -141 -77 -244 -111 -88 -29 -120 -38
-193 -51 -5 -1 -20 -3 -33 -3 -13 -1 -34 -13 -47 -27 l-25 -24 0 -256 0 -256
64 -62 c36 -34 70 -76 76 -92 67 -173 -65 -351 -245 -332 -64 6 -98 23 -147
72 -48 48 -72 120 -65 190 7 66 24 95 98 166 l59 56 0 256 c0 229 -2 257 -18
277 -16 20 -63 34 -183 55 -89 16 -355 133 -366 161 -3 8 17 35 46 63 28 27
51 53 51 58 0 5 -24 32 -53 61 l-53 53 -259 -260 c-142 -142 -262 -268 -267
-280 -4 -12 -4 -40 1 -64 41 -222 -222 -366 -393 -215 -52 45 -77 103 -77 174
0 157 143 265 306 231 11 -2 28 -1 38 2 10 4 135 124 277 266 l260 260 -56 56
-56 57 -59 -59 -59 -59 -27 43 c-61 96 -131 278 -148 382 -5 28 -9 53 -11 58
-1 4 -2 16 -3 27 0 12 -12 32 -26 45 l-24 25 -256 0 -255 0 -68 -69 c-60 -61
-75 -70 -125 -81 -172 -39 -321 99 -293 272 23 140 168 228 310 186 29 -9 61
-33 108 -80 l68 -68 254 0 c307 0 289 -7 317 129 10 52 28 124 39 160 26 83
118 271 136 278 9 3 34 -16 63 -46 27 -28 53 -51 58 -51 5 0 32 24 61 53 l52
53 -259 259 c-143 142 -268 262 -278 266 -10 4 -40 3 -67 -1 -146 -22 -277 86
-277 229 0 56 5 81 23 112 57 103 183 153 289 117 120 -40 179 -149 157 -289
-4 -20 -2 -42 2 -49 4 -7 124 -129 266 -272 l258 -258 57 56 57 56 -59 59 -59
59 38 23 c106 67 269 131 392 153 19 3 42 7 50 9 8 2 23 4 33 4 10 1 29 12 42
26 l25 24 0 256 0 255 -68 68 c-58 57 -71 75 -81 120 -30 121 23 232 134 283
48 23 154 21 200 -4z"/>
<path d="M2485 3511 c-92 -24 -173 -90 -215 -176 -20 -41 -25 -65 -25 -135 0
-70 5 -94 25 -135 31 -64 95 -127 157 -156 70 -34 198 -33 268 1 64 31 124 91
155 155 35 72 35 198 0 270 -31 64 -95 128 -155 155 -51 23 -161 34 -210 21z
m138 -165 c104 -43 127 -190 42 -265 -114 -100 -285 -1 -260 150 17 98 124
155 218 115z"/>
<path d="M1740 2864 c-51 -19 -116 -61 -144 -95 -10 -12 -30 -45 -45 -73 -22
-44 -26 -63 -25 -136 0 -101 24 -161 90 -227 65 -64 122 -87 224 -87 70 -1 94
4 135 24 64 31 124 91 155 155 35 71 35 198 0 270 -31 64 -92 124 -154 154
-66 30 -174 37 -236 15z m188 -171 c50 -37 66 -69 67 -132 0 -48 -5 -63 -29
-95 -68 -90 -190 -86 -260 7 -15 20 -20 43 -21 86 0 48 5 63 29 95 16 21 43
44 60 52 41 19 120 12 154 -13z"/>
<path d="M3219 2876 c-3 -3 -14 -7 -25 -9 -71 -12 -171 -96 -206 -175 -32 -71
-31 -200 2 -267 31 -64 95 -127 157 -156 71 -34 199 -33 268 1 64 31 124 91
155 155 35 72 35 198 0 270 -54 108 -151 173 -274 182 -39 3 -74 3 -77 -1z
m150 -184 c50 -37 66 -70 66 -132 -1 -91 -55 -151 -141 -156 -89 -5 -157 47
-169 130 -12 76 27 147 95 175 35 15 120 5 149 -17z"/>
<path d="M2460 2224 c-93 -34 -163 -101 -201 -194 -8 -21 -14 -67 -13 -115 0
-96 24 -156 87 -219 64 -64 127 -90 217 -90 41 0 84 2 95 5 82 22 165 93 205
174 34 70 35 198 1 268 -29 63 -93 126 -156 156 -65 31 -172 38 -235 15z m152
-154 c110 -31 143 -180 58 -261 -147 -140 -362 64 -228 216 43 49 100 64 170
45z"/>
</g>
</svg>
